<svg id="Layer_2" data-name="Layer 2" xmlns="http://www.w3.org/2000/svg" viewBox="0 0 376 337.5"><defs><style>.cls-1{fill:#fff;}.cls-2{fill:#ededed;}</style></defs><polygon class="cls-1" points="376 128.5 357.3 160.8 356.86 161.56 356.65 161.92 355.8 163.39 343 185.5 342.41 186.07 341.18 187.25 313.16 214.2 185 337.5 47.37 204.75 44.05 201.55 44 201.5 43.35 200.64 42.73 199.83 0 143.5 0 69.5 46 9.5 130 9.5 185 53.5 248 0.5 318 0.5 364 53.5 376 128.5"/><polygon class="cls-1" points="238 266.5 121 259.5 215 130.5 238 266.5"/><polygon class="cls-1" points="121 259.5 160 300.5 238 266.5 284 216.5 215 130.5 85 96.5 121 259.5"/><polygon class="cls-1" points="215 130.5 318 0.5 309 11.86 248 0.5 215 130.5"/><polygon class="cls-1" points="215 130.5 185 53.5 85 96.5 215 130.5"/><polygon class="cls-1" points="0 69.5 85 96.5 43 201.5 28 108.5 0 69.5"/><polyline class="cls-1" points="0 143.5 28 108.5 85 96.5 91 23.5 130 9.5 110 48.5 85 96.5 46 9.5 91.39 23.87 111.6 30.26 185 53.5"/><polygon class="cls-1" points="288.67 213.05 331.37 181.46 342.41 186.07 343 186.32 341.18 187.25 290.57 213.14 284 216.5 288.67 213.05"/><path class="cls-1" d="M716.5,285.83l-4,87.61c-1.61,9.15-2.35,13.39-2.7,15.36l-.3,1.7-1.2.89-24.43,18.07L570.27,362l-2.35-1-.42-.17.4.08,1.8.37q69.72,14.34,139.45,28.68l.35.07c0-.14-.09-.29-.14-.43Q685.44,316.27,661.5,243Z" transform="translate(-352.5 -228)"/><polyline class="cls-1" points="43 201.5 121 259.5 160 300.5 185 337.5 238 266.5 313.17 214.2"/><path class="cls-2" d="M728,356l-18.7,32.3L709,390l-1.2.89L695,413l-.59.57.59.25-1.82.93-28,26.95L537,565V281l63-53h70l46,53Z" transform="translate(-352.5 -228)"/><polygon class="cls-1" points="47.37 204.75 150 289.99 215.5 130 108.19 201.5 47.37 204.75"/><line class="cls-1" x1="108.5" y1="201" x2="150.5" y2="290"/><line class="cls-1" x1="27.5" y1="109" x2="30.88" y2="128.91"/><line class="cls-1" x1="215.5" y1="130" x2="237.5" y2="266"/><path class="cls-2" d="M555.88,329.37c-7.26-1.1-7.59,8.8-7.79,13.59L547,369.61q-1.1,26.52-2.2,53l-1.25,30.14c-.08,1.93,2.92,1.92,3,0l2.1-50.56q1.05-25.16,2.09-50.3c.19-4.52.11-9.13.59-13.62.19-1.81,1.1-6.45,3.77-6.05,1.89.29,2.7-2.6.8-2.89Z" transform="translate(-352.5 -228)"/><path class="cls-2" d="M547.3,362l-4.95-2.67a1.51,1.51,0,0,0-2.26,1.29l1.71,37.45c.54,11.79,1.07,23.63.09,35.41A105.4,105.4,0,0,1,538.5,453l2.94.4L546,377.15l1.27-21.43c.11-1.81-2.37-1.87-3-.4-4.69,12-4.67,25.13-4.62,37.81q0,10.35.46,20.69c.26,6.5.76,13,1,19.5.3,6.93.14,14.12-2.63,20.59l2.79.76a296,296,0,0,1-1.6-35.35q.13-8.73.79-17.44c.44-5.83,1.16-11.63,1.7-17.45a72.17,72.17,0,0,0-.34-19.31c-.27-1.52-2.5-1.33-2.89,0-6.57,22.66-2.56,46.35-2.14,69.48a147.25,147.25,0,0,1-.84,19.92h3l.3-66,.08-18.69c0-2-2.75-1.85-3,0-2.66,20.28,1.53,40.54,1.43,60.84a101.68,101.68,0,0,1-1.4,17.07l3,.4L539,389l-.12-16.7h-3l.36,27.07c.12,8.92.42,17.85.19,26.76a99.14,99.14,0,0,1-1.39,15l3,.39q2-26.7,1.8-53.51-.07-7.69-.33-15.37a1.5,1.5,0,0,0-3,0c-1.65,20.9,1.44,41.77,1.07,62.68a138.63,138.63,0,0,1-1.33,17.63l3,.4q-.48-34.35.6-68.68.31-9.71.74-19.4h-3l4.62,66.11,1.32,18.89,3-.4c-5.34-22.1-4-45.07-1.32-67.45.78-6.43,1.69-12.85,2.6-19.27l-2.94-.39q0,32.79,1.21,65.57.35,9.19.77,18.37c.09,1.92,3.08,1.94,3,0q-1.51-34.68.2-69.41.48-9.9,1.24-19.79h-3q-1.17,31-1.2,62,0,8.83.08,17.68h3a417.14,417.14,0,0,1-.27-64q.66-9.09,1.72-18.15h-3q-.53,27.17.32,54.33.24,7.72.59,15.44h3a409.5,409.5,0,0,1,.73-57q.66-8.1,1.66-16.16h-3q-.9,26.34.8,52.67.48,7.53,1.18,15c.18,1.89,3.09,2,3,0q-1.07-24.88-.3-49.8.23-7.05.59-14.11h-3q-.82,25.25-.39,50.5a1.5,1.5,0,0,0,3,0L559,345.78c.08-2-2.8-1.88-3,0a242.85,242.85,0,0,0,1.08,58.28c.23,1.67,3,1.27,2.95-.4-.84-17.53-1.66-35.13.14-52.63h-3a389.76,389.76,0,0,0,2.64,53.79c.22,1.86,3,2,3,0l.25-52.09a1.5,1.5,0,0,0-3,0q-.45,23.88,1.18,47.74h3a447.86,447.86,0,0,1-1.05-47.77h-3a468.33,468.33,0,0,0,2.66,47.5c.21,1.88,3.12,2,3,0l-2.86-49a1.5,1.5,0,0,0-3,0,215.76,215.76,0,0,0,3.13,55.12c.32,1.74,2.85,1.21,2.94-.4l3.18-56.63h-3q-1.17,26.77-3,53.53-.54,7.68-1.12,15.35h3c-.34-20.61,1.42-41.2,4.18-61.61q1.17-8.65,2.55-17.29a1.5,1.5,0,0,0-2.89-.8c-7.77,24.21-6.56,49.91-8.79,74.92a176.49,176.49,0,0,1-3.06,21.23H560c-3.07-16.79,7.14-32.54,16-45.85a1.51,1.51,0,0,0-1.3-2.26c-2.15.18-4.59.41-6.63-.46s-2.68-2.67-3-4.63c-.61-3.78,0-8.3-3.26-11a1.51,1.51,0,0,0-2.5.66c-3.16,14.5-2.68,29.59-6.57,43.95a55.85,55.85,0,0,1-4.53,11.64l2.8.76a216.48,216.48,0,0,1-.27-49.53c.52-4.71,1.21-9.39,2-14.05l-3-.4c.89,16.71,1.79,33.47.79,50.2q-.42,7.13-1.35,14.2h3a483,483,0,0,1,.9-59.55q.65-8.34,1.58-16.66h-3q-.83,30.58-2.67,61.14-.52,8.7-1.13,17.38h3a380.63,380.63,0,0,1,1.74-63.51q1-9,2.43-17.85l-2.94-.4q-3.17,32.37-4.25,64.9-.3,9.18-.44,18.36h3a507.69,507.69,0,0,1,.85-59.16c.4-5.58.91-11.15,1.49-16.71.21-1.92-2.79-1.9-3,0a509.5,509.5,0,0,0-2.8,59.1q.09,8.4.46,16.77a1.5,1.5,0,0,0,3,0q.49-32.52,3.06-65,.74-9.17,1.63-18.3c.16-1.67-2.68-2.07-2.95-.4a384.16,384.16,0,0,0-4.87,64q.07,9.09.59,18.16a1.5,1.5,0,0,0,3,0q2.13-30.52,3.25-61.12.32-8.7.55-17.4c.06-2-2.79-1.88-3,0a482.26,482.26,0,0,0-3,59.47q.11,8.37.49,16.74a1.5,1.5,0,0,0,3,0c2.2-16.62,2-33.42,1.28-50.13-.21-4.76-.47-9.51-.72-14.27-.09-1.59-2.63-2.16-2.95-.4a218.85,218.85,0,0,0-3.12,50.08q.39,7.17,1.25,14.3c.16,1.34,2,2.21,2.79.75,7.12-13.4,7.64-28.77,9.35-43.52.5-4.29,1.13-8.56,2-12.78l-2.51.66c1.6,1.33,1.88,3.34,2.05,5.31a24.43,24.43,0,0,0,1,6.48c1.9,5.11,7.24,5.61,12,5.21l-1.29-2.26c-9.41,14.12-19.55,30.44-16.31,48.17a1.51,1.51,0,0,0,2.89,0c5.3-24.83,3.46-50.4,7.15-75.41a128.9,128.9,0,0,1,4.7-20.74l-2.89-.8c-3.24,20.54-5.87,41.21-6.65,62q-.33,8.83-.19,17.69a1.5,1.5,0,0,0,3,0q2-26.73,3.41-53.51.4-7.68.73-15.37c.09-1.94-2.89-1.92-3,0l-3.18,56.63,3-.39a212.79,212.79,0,0,1-3-54.33h-3l2.86,49h3a468.33,468.33,0,0,1-2.66-47.5,1.5,1.5,0,0,0-3,0,447.86,447.86,0,0,0,1.05,47.77c.15,1.92,3.14,1.94,3,0q-1.63-23.84-1.18-47.74h-3l-.25,52.09h3A389.76,389.76,0,0,1,560.16,351c0-2-2.81-1.88-3,0-1.8,17.5-1,35.1-.14,52.63l2.94-.4a239.79,239.79,0,0,1-1-57.48h-3l-2.37,60.08h3q-.45-25.25.39-50.5c.07-1.93-2.9-1.92-3,0q-1.29,24.87-.75,49.79.16,7.07.46,14.12h3q-2.43-26.25-2.29-52.63,0-7.54.31-15.09c.06-2-2.78-1.86-3,0a412.26,412.26,0,0,0-3,57q.15,8.12.61,16.22c.11,1.92,3.09,1.94,3,0q-1.23-27.14-1.1-54.32,0-7.73.19-15.45c0-2-2.78-1.87-3,0a417.9,417.9,0,0,0-2.53,64q.33,9.12,1.08,18.21c.15,1.89,3,1.95,3,0q-.3-31,.54-62,.24-8.83.58-17.66c.07-1.95-2.86-1.91-3,0q-2.62,34.61-2,69.37.16,9.92.6,19.83h3q-1.53-32.76-1.88-65.56-.1-9.19-.1-18.38c0-1.63-2.71-2.12-3-.4-3.25,22.88-6.55,46.09-4.41,69.24a133.72,133.72,0,0,0,3.13,19.07c.39,1.62,3.06,1.31,2.94-.4l-4.62-66.11-1.32-18.89a1.5,1.5,0,0,0-3,0q-1.51,34.31-1.49,68.67,0,9.7.15,19.41c0,1.62,2.69,2.13,2.94.4,3.07-21,.3-42.14-.09-63.22-.11-6,0-11.94.46-17.89h-3q.89,26.76-.49,53.54-.39,7.68-1,15.34c-.13,1.67,2.65,2.07,2.94.4,1.59-8.81,1.63-17.76,1.52-26.69q-.17-13.64-.36-27.28l-.21-15.65a1.5,1.5,0,0,0-3,0l.41,59.1.11,16.71c0,1.63,2.65,2.11,3,.4,3.56-20.4-.46-40.92-.8-61.39a117.9,117.9,0,0,1,.87-17.32h-3l-.3,66L536,454.52c0,2,2.77,1.86,3,0,2.75-23.17-2.09-46.39-.42-69.59a92.06,92.06,0,0,1,3.29-19H539c2,11.32-.42,22.94-1.34,34.25a292.2,292.2,0,0,0-.73,34.89q.38,9.82,1.41,19.61c.14,1.28,2.14,2.29,2.8.76,5.07-11.83,2.76-25.24,2.18-37.67q-.48-10.35-.6-20.69c-.07-6.63-.13-13.27.27-19.89a69.14,69.14,0,0,1,4.22-21.06l-3-.4L539.72,432l-1.28,21.43c-.1,1.71,2.51,2,2.95.39,3.19-11.49,4.08-23.46,4-35.34,0-12.11-.8-24.22-1.36-36.31l-1-21.47-2.26,1.3,4.95,2.67c1.7.91,3.22-1.68,1.52-2.59Z" transform="translate(-352.5 -228)"/></svg>