<svg xmlns="http://www.w3.org/2000/svg" viewBox="0 0 138.24 107.73"><defs><style>.cls-1{fill:#2bd64f;}</style></defs><g id="Layer_2" data-name="Layer 2"><g id="Layer_1-2" data-name="Layer 1"><path class="cls-1" d="M2.62,78A2.63,2.63,0,1,1,0,80.63,2.62,2.62,0,0,1,2.62,78ZM.51,101.52V85.78H4.77v15.74Z"/><path class="cls-1" d="M13.57,101.52H9.31V85.78h4.13v2A5.24,5.24,0,0,1,18,85.36c3.91,0,5.7,2.78,5.7,6.24v9.92H19.42V92.34c0-1.76-.86-3.14-2.91-3.14a3,3,0,0,0-2.94,3.26Z"/><path class="cls-1" d="M43,98.67c0,1.06.06,2.21.12,2.85H39.07a11.33,11.33,0,0,1-.16-1.82,4.93,4.93,0,0,1-4.41,2.2c-4.48,0-7.68-3.52-7.68-8.28s3.1-8.23,7.55-8.23c2.72,0,4,1.12,4.45,2v-9H43Zm-8-.57c2.17,0,3.87-1.67,3.87-4.52S37.18,89.2,35,89.2s-3.91,1.6-3.91,4.42S32.77,98.1,35,98.1Z"/><path class="cls-1" d="M48.54,107.73l3.71-8.19L45.57,85.78h4.76L54.53,95l3.87-9.21h4.54l-9.88,22Z"/><path class="cls-1" d="M78.94,85.78l3.39,10.14,2.92-10.14h4.22l-4.93,15.74H80.29L76.61,90.77,73,101.52H68.67l-5-15.74h4.48L71,95.89l3.42-10.11Z"/><path class="cls-1" d="M95.81,92.46l3.87-.57c.89-.13,1.18-.58,1.18-1.12,0-1.12-.86-2-2.65-2a2.79,2.79,0,0,0-3,2.56l-3.78-.8C91.68,88,94,85.3,98.17,85.3c5,0,6.85,2.81,6.85,6V99a18.51,18.51,0,0,0,.19,2.5h-3.9a10.34,10.34,0,0,1-.16-1.89A5.25,5.25,0,0,1,96.51,102c-3.36,0-5.41-2.27-5.41-4.74C91.1,94.42,93.18,92.85,95.81,92.46Zm5,2.69v-.7L97.31,95a2,2,0,0,0-2,2,1.85,1.85,0,0,0,2,1.82C99.2,98.8,100.86,97.94,100.86,95.15Z"/><path class="cls-1" d="M109.31,101.52V78.35h4.26v23.17Z"/><path class="cls-1" d="M118.11,101.52V78.35h4.26v23.17Z"/><path class="cls-1" d="M129.21,96.34a2.63,2.63,0,0,0,2.88,2.4c1.41,0,2.08-.74,2.08-1.57s-.48-1.28-1.69-1.54l-2.08-.48c-3-.67-4.42-2.49-4.42-4.7,0-2.82,2.5-5.15,5.89-5.15,4.48,0,6,2.84,6.18,4.54l-3.56.8a2.39,2.39,0,0,0-2.59-2.11,1.8,1.8,0,0,0-2,1.57c0,.76.57,1.25,1.44,1.4l2.24.48c3.1.64,4.67,2.53,4.67,4.84,0,2.56-2,5.18-6.11,5.18-4.74,0-6.37-3.07-6.56-4.86Z"/><rect class="cls-1" x="0.51" width="23.18" height="66.72"/><rect class="cls-1" x="38.82" width="99.42" height="66.72"/></g></g></svg>